<svg width="123" height="25" viewBox="0 0 123 25" fill="none" xmlns="http://www.w3.org/2000/svg">
<path d="M48.7158 20.6334V4.54253C48.7158 3.67307 49.2231 3.21484 50.1858 3.21484H52.176C53.0281 3.21484 53.5354 3.5262 53.8866 4.22529L59.968 16.1921C60.3257 16.9264 60.7095 17.6431 61.0737 18.3657C61.1583 18.5185 61.2168 18.589 61.3924 18.589C61.542 18.589 61.6266 18.4715 61.6266 18.2717V16.1627L61.6526 4.0608C61.6526 3.50858 61.9713 3.22072 62.5827 3.22072H63.6233C64.2347 3.22072 64.5534 3.50858 64.5534 4.0608V20.1516C64.5534 21.0211 64.0461 21.4793 63.0835 21.4793H61.0542C60.2021 21.4793 59.6948 21.168 59.3436 20.4689L53.1842 8.41397C52.8329 7.71488 52.4752 7.02166 52.1305 6.32844C52.0524 6.18157 51.9874 6.1052 51.8248 6.1052C51.6817 6.1052 51.5972 6.22857 51.5972 6.42244V8.60196L51.6492 20.6392C51.6492 21.1915 51.3305 21.4793 50.7191 21.4793H49.6524C49.041 21.4793 48.7223 21.1915 48.7223 20.6392L48.7158 20.6334Z" fill="white"/>
<path d="M65.5811 18.0192V16.7209C65.5811 14.6589 67.1095 13.4722 69.7502 13.4722H75.0511C75.2657 13.4722 75.3763 13.3723 75.3763 13.1785V12.4794C75.3503 10.7875 74.6674 10.3939 72.4559 10.3939C71.3372 10.3939 69.3405 10.3939 67.4608 10.4996C66.8168 10.5466 66.4786 10.3057 66.3485 9.71239C66.1924 8.95455 66.4006 8.66669 67.2591 8.5492C69.1648 8.29071 71.5584 8.22021 73.0608 8.22021C76.4755 8.22021 78.2186 9.19542 78.2186 12.4794V20.5571C78.2186 21.1563 77.8739 21.4677 77.217 21.4677H76.9048C76.2999 21.4677 76.0267 21.3913 75.8511 20.6981L75.7861 20.3809C75.708 20.1341 75.5454 20.0636 75.3568 20.234C74.1991 21.1446 72.4299 21.7262 70.0494 21.7262C67.4217 21.7262 65.5811 20.422 65.5811 18.0251V18.0192ZM75.1356 18.4598C75.2917 18.3658 75.3763 18.1661 75.3763 17.9781V15.7105C75.3763 15.5166 75.2657 15.4167 75.0511 15.4167L70.2901 15.4285C68.8917 15.4755 68.4559 16.0747 68.4559 17.0969V17.702C68.4559 19.0121 69.1518 19.5525 70.6283 19.5525C71.9096 19.5525 73.6072 19.4527 75.1356 18.4657V18.4598Z" fill="white"/>
<path d="M81.1192 18.777L79.1549 5.14763C78.9728 3.91981 79.6883 3.21484 81.0476 3.21484H83.5713C84.8461 3.21484 85.5485 3.80232 85.6331 4.95963L86.3355 14.1124C86.3876 14.8938 86.4201 15.728 86.4201 16.6797C86.4201 17.0498 86.4981 17.2319 86.6412 17.2319C86.7843 17.2319 86.8689 17.0615 86.9209 16.7032C87.0705 15.8572 87.2136 14.976 87.3307 14.0596L88.4754 5.91134C88.729 4.13717 89.8803 3.21484 91.8771 3.21484H94.4267C96.456 3.21484 97.6072 4.13717 97.8544 5.94071L98.9406 14.1418C99.0446 15.0113 99.2463 15.8337 99.3178 16.7091C99.3438 17.0792 99.4544 17.2378 99.591 17.2378C99.7276 17.2378 99.8121 17.0439 99.8121 16.6856C99.8121 15.8631 99.8772 14.9232 99.9292 14.1712L100.606 4.96551C100.684 3.81406 101.386 3.22072 102.654 3.22072H105.185C106.537 3.22072 107.22 3.91981 107.051 5.12413L105.087 18.777C104.833 20.5453 103.669 21.4735 101.672 21.4735H98.0365C96.0072 21.4735 94.856 20.557 94.6283 18.7476L93.5746 10.147C93.4836 9.41267 93.4641 8.65483 93.399 7.92637C93.373 7.60913 93.2754 7.39764 93.1324 7.39764C92.9632 7.39764 92.8657 7.60326 92.8397 7.92637C92.7811 8.66658 92.7486 9.44204 92.6641 10.1764L91.6104 18.7476C91.3892 20.5511 90.251 21.4735 88.2282 21.4735H84.5274C82.5306 21.4735 81.3859 20.557 81.1257 18.777H81.1192Z" fill="white"/>
<path d="M106.544 14.9643C106.544 9.75344 108.801 7.87354 114.863 7.87354C120.372 7.87354 122.454 9.48908 122.48 12.5851C122.506 15.0466 121.101 16.0805 116.795 16.0805H113.81C113.309 16.0805 113.192 16.1863 113.283 16.5857C113.426 17.2731 114.278 17.5374 115.566 17.5374C116.444 17.5374 118.115 17.4317 119.845 17.326C121.075 17.2496 121.81 17.7489 121.985 18.8358C122.193 20.0812 121.868 20.7392 120.723 21.0858C118.993 21.5616 116.886 21.8025 114.896 21.8025C108.775 21.8025 106.544 19.4761 106.544 14.9761V14.9643ZM115.071 13.4545C116.301 13.4545 116.593 13.2137 116.593 12.4499C116.593 11.604 116.093 11.4689 115.039 11.4454C113.601 11.4219 113.049 11.7626 113.049 12.8729C113.049 13.3253 113.166 13.4545 113.608 13.4545H115.071Z" fill="white"/>
<path d="M37.7696 0.535796C37.5354 0.0834428 36.9566 -0.122172 36.4558 0.0893175L36.2541 0.177438C35.7793 0.383053 35.5842 0.882404 35.7728 1.32301C36.6769 3.42616 37.1322 5.71142 37.1582 8.12593C37.1647 8.57241 36.7484 8.93664 36.2476 8.93077H35.8704C35.4086 8.92489 35.0313 8.59591 34.9923 8.1788C34.7842 6.16377 34.2834 4.21337 33.4964 2.35108C33.2947 1.88111 32.6834 1.66962 32.176 1.88111H32.1695C31.7012 2.08085 31.4931 2.57432 31.6752 3.01493C32.3581 4.63635 32.8134 6.33414 33.0151 8.08481C33.0736 8.54891 32.6573 8.95426 32.137 8.96601H32.124C31.6817 8.96601 31.3045 8.6664 31.2394 8.26692C30.9728 6.78062 30.55 5.32956 29.9711 3.91963C29.776 3.44966 29.1906 3.16767 28.6768 3.34978C28.2865 3.49078 28.0524 3.81976 28.0524 4.17225C28.0524 4.28386 28.0784 4.39548 28.1239 4.5071C28.6052 5.65855 28.9695 6.85112 29.2166 8.06718C29.3142 8.56653 28.9044 9.03063 28.3451 9.03063H28.2996C27.8638 9.03063 27.48 8.7604 27.402 8.37267C27.363 8.1788 27.3239 7.98494 27.2784 7.79107C27.2394 7.58546 27.1873 7.37984 27.1353 7.18597C27.1158 7.11548 27.1028 7.04498 27.0833 6.98036C27.0247 6.76887 26.9597 6.5515 26.8947 6.34001C26.8751 6.26364 26.8556 6.1814 26.8296 6.1109C26.7646 5.91116 26.6995 5.7173 26.6345 5.51756C26.5955 5.41769 26.5629 5.31781 26.5239 5.22382C26.1532 4.87134 25.7239 4.5776 25.2361 4.79496L25.1125 4.84784C24.7093 5.02408 24.5271 5.44118 24.6702 5.82304C24.9499 6.58675 25.1841 7.35634 25.3532 8.1318C25.4637 8.60178 25.5548 9.07763 25.6264 9.55348C25.6524 9.71798 25.6719 9.87659 25.6914 10.0411C25.7239 10.3583 25.7629 10.6756 25.7824 10.9987C25.7824 11.0163 25.7759 11.0339 25.7824 11.0574C25.8085 11.3864 25.815 11.7154 25.815 12.0444C25.8215 12.2911 25.8215 12.532 25.815 12.7728C25.815 12.8668 25.815 12.9608 25.8085 13.0489C25.802 13.2252 25.789 13.4014 25.7824 13.5777C25.7629 13.7363 25.7499 13.8949 25.7369 14.0476C25.7304 14.0711 25.7304 14.0888 25.7304 14.1064C25.6979 14.4178 25.6589 14.7291 25.6068 15.0463C25.5678 15.3048 25.5223 15.5751 25.4702 15.8277V15.8453C25.4377 16.0215 25.4052 16.1919 25.3597 16.3623C25.3532 16.3682 25.3532 16.374 25.3532 16.3799C25.1906 17.1201 24.1954 17.4197 23.558 16.9321L22.5044 16.1332L20.9889 14.9876L20.7092 14.7761C20.5076 14.6234 20.2604 14.5646 20.0133 14.5764C19.7661 14.5587 19.519 14.6234 19.3173 14.7761L19.0376 14.9876L17.5222 16.1332L16.4685 16.9321C15.8311 17.4197 14.836 17.1201 14.6734 16.3799C14.6734 16.374 14.6734 16.3682 14.6669 16.3623C14.6213 16.1919 14.5888 16.0215 14.5563 15.8453V15.8277C14.5043 15.5751 14.4587 15.3048 14.4197 15.0463C14.3677 14.7291 14.3286 14.4178 14.2961 14.1064C14.2961 14.0888 14.2961 14.0711 14.2961 14.0476C14.2831 13.8949 14.2701 13.7363 14.2506 13.5777C14.2506 13.4014 14.2311 13.2252 14.2246 13.0489C14.2246 12.9608 14.2116 12.8668 14.2246 12.7728C14.2116 12.532 14.2116 12.2911 14.2181 12.0444C14.2181 11.7154 14.2246 11.3864 14.2506 11.0574C14.2506 11.0339 14.2506 11.0163 14.2506 10.9987C14.2701 10.6756 14.3091 10.3583 14.3416 10.0411C14.3612 9.87659 14.3807 9.71798 14.4067 9.55348C14.4782 9.07763 14.5693 8.60178 14.6799 8.1318C14.8555 7.35047 15.0896 6.58088 15.3693 5.81717C15.5059 5.43531 15.3238 5.0182 14.9205 4.84784L14.7969 4.79496C14.3091 4.58348 13.8864 4.87134 13.5091 5.22382C13.4701 5.31781 13.4376 5.41769 13.3985 5.51756C13.3335 5.7173 13.2685 5.91116 13.2034 6.1109C13.1774 6.1814 13.1579 6.26364 13.1384 6.34001C13.0733 6.5515 13.0083 6.76887 12.9498 6.98036C12.9302 7.04498 12.9172 7.11548 12.8977 7.18597C12.8457 7.37984 12.7937 7.58546 12.7546 7.79107C12.7091 7.98494 12.6701 8.1788 12.6311 8.37267C12.553 8.7604 12.1693 9.03651 11.7335 9.03063H11.688C11.1286 9.03063 10.7188 8.56653 10.8164 8.06718C11.0636 6.85112 11.4278 5.65855 11.9091 4.5071C11.9546 4.39548 11.9806 4.28386 11.9806 4.17225C11.9806 3.81976 11.753 3.49665 11.3562 3.34978C10.8424 3.16179 10.257 3.44966 10.0619 3.91963C9.47655 5.32956 9.05378 6.78649 8.79361 8.26692C8.72857 8.6664 8.35133 8.96601 7.90905 8.96601H7.89604C7.37571 8.95426 6.95944 8.54891 7.01798 8.08481C7.21961 6.33414 7.6749 4.63635 8.35783 3.01493C8.53995 2.57432 8.33181 2.08085 7.86352 1.88111H7.85701C7.34969 1.66962 6.7383 1.88111 6.53667 2.35108C5.74967 4.21337 5.24885 6.16377 5.04072 8.1788C5.00169 8.59591 4.62445 8.92489 4.16266 8.92489H3.78541C3.2911 8.93664 2.86833 8.57828 2.87483 8.12593C2.90085 5.70555 3.35614 3.42616 4.26672 1.31713C4.45534 0.876529 4.26022 0.383053 3.79192 0.177438L3.58379 0.0834428C3.08297 -0.128047 2.5041 0.0775681 2.26995 0.529921C0.793506 3.38503 0.0195124 6.50451 0 9.7356V9.83547C0 15.0522 2.04881 20.1162 5.76918 24.1228C6.7383 25.1626 8.4619 25.2977 9.61313 24.4224L19.0311 17.2787C19.597 16.8499 20.4165 16.8499 20.9824 17.2787L30.4004 24.4224C31.5516 25.2977 33.2752 25.1626 34.2443 24.1228C37.9647 20.1162 40.0135 15.0522 40.0135 9.83547V9.7356C39.994 6.50451 39.22 3.38503 37.7696 0.535796Z" fill="#F05924"/>
</svg>
