<svg width="602" height="137" viewBox="0 0 602 137" fill="none" xmlns="http://www.w3.org/2000/svg">
<path d="M239.39 112.255V24.7126C239.39 19.9823 241.883 17.4894 246.613 17.4894H256.393C260.58 17.4894 263.073 19.1833 264.799 22.9867L294.683 88.0918C296.441 92.087 298.326 95.9863 300.116 99.9175C300.532 100.748 300.819 101.132 301.682 101.132C302.417 101.132 302.833 100.493 302.833 99.4061V87.932L302.961 22.0918C302.961 19.0874 304.527 17.5213 307.531 17.5213H312.645C315.649 17.5213 317.215 19.0874 317.215 22.0918V109.634C317.215 114.364 314.722 116.857 309.992 116.857H300.02C295.833 116.857 293.34 115.163 291.614 111.36L261.347 45.7751C259.621 41.9717 257.863 38.2003 256.169 34.4288C255.786 33.6298 255.466 33.2143 254.667 33.2143C253.964 33.2143 253.548 33.8855 253.548 34.9402V46.7979L253.804 112.287C253.804 115.291 252.238 116.857 249.234 116.857H243.992C240.988 116.857 239.422 115.291 239.422 112.287L239.39 112.255Z" fill="#1A1A1A"/>
<path d="M322.266 98.0318V90.9684C322.266 79.75 329.777 73.2938 342.753 73.2938H368.801C369.856 73.2938 370.4 72.7505 370.4 71.6957V67.8923C370.272 58.6875 366.916 56.5461 356.049 56.5461C350.552 56.5461 340.739 56.5461 331.503 57.1214C328.339 57.3771 326.677 56.0667 326.037 52.8386C325.27 48.7156 326.293 47.1495 330.512 46.5102C339.877 45.1039 351.638 44.7204 359.021 44.7204C375.801 44.7204 384.367 50.026 384.367 67.8923V111.839C384.367 115.099 382.673 116.793 379.445 116.793H377.91C374.938 116.793 373.596 116.378 372.733 112.606L372.413 110.88C372.03 109.538 371.231 109.154 370.304 110.081C364.615 115.035 355.921 118.199 344.223 118.199C331.311 118.199 322.266 111.104 322.266 98.0638V98.0318ZM369.217 100.429C369.984 99.9175 370.4 98.8309 370.4 97.8081V85.471C370.4 84.4163 369.856 83.873 368.801 83.873L345.406 83.9369C338.534 84.1926 336.393 87.4526 336.393 93.0139V96.3059C336.393 103.433 339.813 106.374 347.068 106.374C353.364 106.374 361.706 105.83 369.217 100.461V100.429Z" fill="#1A1A1A"/>
<path d="M398.62 102.155L388.968 28.0046C388.073 21.3247 391.589 17.4893 398.269 17.4893H410.67C416.934 17.4893 420.386 20.6855 420.802 26.9818L424.253 76.7775C424.509 81.0284 424.669 85.5669 424.669 90.7446C424.669 92.7581 425.052 93.749 425.756 93.749C426.459 93.749 426.874 92.8221 427.13 90.8724C427.865 86.27 428.568 81.4758 429.143 76.4899L434.769 32.1596C436.015 22.5073 441.672 17.4893 451.484 17.4893H464.013C473.985 17.4893 479.642 22.5073 480.857 32.3194L486.194 76.9373C486.706 81.6676 487.696 86.1422 488.048 90.9044C488.176 92.918 488.719 93.7809 489.39 93.7809C490.062 93.7809 490.477 92.7262 490.477 90.7766C490.477 86.302 490.797 81.1882 491.052 77.0971L494.376 27.0138C494.76 20.7494 498.212 17.5213 504.444 17.5213H516.877C523.525 17.5213 526.881 21.3247 526.05 27.8768L516.398 102.155C515.151 111.775 509.43 116.825 499.618 116.825H481.752C471.78 116.825 466.123 111.839 465.004 101.995L459.826 55.2037C459.379 51.2085 459.283 47.0855 458.963 43.1223C458.835 41.3964 458.356 40.2458 457.653 40.2458C456.822 40.2458 456.342 41.3644 456.215 43.1223C455.927 47.1494 455.767 51.3683 455.352 55.3635L450.174 101.995C449.087 111.807 443.494 116.825 433.554 116.825H415.368C405.556 116.825 399.931 111.839 398.652 102.155H398.62Z" fill="#1A1A1A"/>
<path d="M523.558 81.4119C523.558 53.0622 534.648 42.8346 564.436 42.8346C591.508 42.8346 601.735 51.624 601.863 68.4676C601.991 81.8593 595.087 87.4845 573.929 87.4845H559.259C556.798 87.4845 556.222 88.0598 556.67 90.2332C557.373 93.9727 561.56 95.4109 567.888 95.4109C572.203 95.4109 580.417 94.8356 588.919 94.2603C594.959 93.8448 598.571 96.5615 599.434 102.474C600.457 109.25 598.859 112.83 593.233 114.716C584.732 117.304 574.376 118.615 564.596 118.615C534.521 118.615 523.558 105.958 523.558 81.4758V81.4119ZM565.459 73.1978C571.5 73.1978 572.938 71.8874 572.938 67.7324C572.938 63.13 570.477 62.3949 565.299 62.2671C558.236 62.1392 555.519 63.993 555.519 70.0337C555.519 72.4947 556.094 73.1978 558.268 73.1978H565.459Z" fill="#1A1A1A"/>
<path d="M185.599 2.91499C184.449 0.453969 181.604 -0.664676 179.143 0.48593L178.152 0.965349C175.819 2.08399 174.86 4.8007 175.787 7.1978C180.23 18.6399 182.467 31.0729 182.595 44.209C182.627 46.638 180.581 48.6196 178.12 48.5877H176.266C173.997 48.5557 172.143 46.7659 171.952 44.4966C170.929 33.5339 168.468 22.9227 164.601 12.791C163.61 10.2341 160.605 9.08351 158.112 10.2341H158.08C155.779 11.3208 154.757 14.0056 155.651 16.4026C159.007 25.224 161.245 34.4608 162.235 43.9852C162.523 46.5102 160.478 48.7155 157.921 48.7794H157.857C155.683 48.7794 153.83 47.1494 153.51 44.976C152.2 36.8898 150.122 28.9954 147.278 21.3247C146.319 18.7678 143.442 17.2336 140.917 18.2244C139 18.9915 137.849 20.7813 137.849 22.699C137.849 23.3063 137.977 23.9135 138.201 24.5208C140.566 30.7852 142.356 37.2734 143.57 43.8893C144.049 46.6061 142.036 49.131 139.287 49.131H139.064C136.922 49.131 135.036 47.6608 134.653 45.5513C134.461 44.4966 134.269 43.4419 134.046 42.3872C133.854 41.2685 133.598 40.1499 133.342 39.0952C133.247 38.7116 133.183 38.3281 133.087 37.9765C132.799 36.8259 132.479 35.6433 132.16 34.4927C132.064 34.0772 131.968 33.6298 131.84 33.2462C131.521 32.1596 131.201 31.1048 130.881 30.0182C130.69 29.4748 130.53 28.9315 130.338 28.4201C128.516 26.5024 126.407 24.9043 124.01 26.0869L123.402 26.3746C121.421 27.3334 120.526 29.6027 121.229 31.6801C122.603 35.8351 123.754 40.022 124.585 44.2409C125.128 46.7978 125.576 49.3867 125.927 51.9756C126.055 52.8705 126.151 53.7334 126.247 54.6283C126.407 56.3542 126.599 58.0802 126.694 59.838C126.694 59.9339 126.663 60.0298 126.694 60.1576C126.822 61.9475 126.854 63.7373 126.854 65.5271C126.886 66.8695 126.886 68.1799 126.854 69.4903C126.854 70.0017 126.854 70.5131 126.822 70.9925C126.79 71.9514 126.726 72.9102 126.694 73.869C126.599 74.732 126.535 75.5949 126.471 76.4259C126.439 76.5538 126.439 76.6497 126.439 76.7455C126.279 78.4395 126.087 80.1334 125.832 81.8593C125.64 83.2656 125.416 84.7359 125.16 86.1102V86.2061C125.001 87.1649 124.841 88.0918 124.617 89.0187C124.585 89.0506 124.585 89.0826 124.585 89.1146C123.786 93.1417 118.896 94.7717 115.764 92.1189L110.586 87.7722L103.139 81.5397L101.765 80.3891C100.774 79.5581 99.5594 79.2385 98.3448 79.3024C97.1303 79.2066 95.9158 79.5581 94.925 80.3891L93.5507 81.5397L86.1037 87.7722L80.9259 92.1189C77.7937 94.7717 72.9037 93.1417 72.1046 89.1146C72.1046 89.0826 72.1046 89.0506 72.0727 89.0187C71.8489 88.0918 71.6891 87.1649 71.5293 86.2061V86.1102C71.2736 84.7359 71.0499 83.2656 70.8581 81.8593C70.6025 80.1334 70.4107 78.4395 70.2509 76.7455C70.2509 76.6497 70.2509 76.5538 70.2509 76.4259C70.187 75.5949 70.123 74.732 70.0272 73.869C70.0272 72.9102 69.9313 71.9514 69.8993 70.9925C69.8993 70.5131 69.8354 70.0017 69.8993 69.4903C69.8354 68.1799 69.8354 66.8695 69.8674 65.5271C69.8674 63.7373 69.8993 61.9475 70.0272 60.1576C70.0272 60.0298 70.0272 59.9339 70.0272 59.838C70.123 58.0802 70.3148 56.3542 70.4746 54.6283C70.5705 53.7334 70.6664 52.8705 70.7942 51.9756C71.1458 49.3867 71.5933 46.7978 72.1366 44.2409C72.9995 39.9901 74.1502 35.8031 75.5245 31.6482C76.1957 29.5707 75.3008 27.3014 73.3192 26.3746L72.7119 26.0869C70.3148 24.9363 68.2373 26.5024 66.3836 28.4201C66.1918 28.9315 66.032 29.4748 65.8402 30.0182C65.5206 31.1048 65.201 32.1596 64.8814 33.2462C64.7535 33.6298 64.6577 34.0772 64.5618 34.4927C64.2422 35.6433 63.9226 36.8259 63.6349 37.9765C63.539 38.3281 63.4751 38.7116 63.3792 39.0952C63.1235 40.1499 62.8678 41.2685 62.6761 42.3872C62.4523 43.4419 62.2606 44.4966 62.0688 45.5513C61.6853 47.6608 59.7996 49.163 57.6581 49.131H57.4344C54.6857 49.131 52.6722 46.6061 53.1516 43.8893C54.3661 37.2734 56.156 30.7852 58.5211 24.5208C58.7448 23.9135 58.8727 23.3063 58.8727 22.699C58.8727 20.7813 57.754 19.0235 55.8044 18.2244C53.2794 17.2017 50.4029 18.7678 49.4441 21.3247C46.5676 28.9954 44.4901 36.9218 43.2116 44.976C42.892 47.1494 41.0383 48.7794 38.8649 48.7794H38.801C36.2441 48.7155 34.1986 46.5102 34.4862 43.9852C35.477 34.4608 37.7143 25.224 41.0702 16.4026C41.9652 14.0056 40.9424 11.3208 38.6412 10.2341H38.6092C36.1162 9.08351 33.1119 10.2341 32.1211 12.791C28.2538 22.9227 25.7927 33.5339 24.77 44.4966C24.5782 46.7659 22.7245 48.5557 20.4552 48.5557H18.6015C16.1724 48.6196 14.0949 46.67 14.1269 44.209C14.2547 31.0409 16.492 18.6399 20.9666 7.16584C21.8935 4.76874 20.9346 2.08399 18.6334 0.965349L17.6107 0.453969C15.1496 -0.696637 12.3051 0.422008 11.1545 2.88303C3.89928 18.4162 0.0958838 35.3876 0 52.9664V53.5097C0 81.8913 10.0678 109.442 28.3497 131.24C33.1119 136.897 41.5816 137.632 47.2388 132.87L93.5187 94.0046C96.2993 91.6715 100.326 91.6715 103.107 94.0046L149.387 132.87C155.044 137.632 163.514 136.897 168.276 131.24C186.558 109.442 196.626 81.8913 196.626 53.5097V52.9664C196.53 35.3876 192.727 18.4162 185.599 2.91499Z" fill="#F96B47"/>
</svg>
