<svg width="14" height="12" viewBox="0 0 14 12" fill="none" xmlns="http://www.w3.org/2000/svg">
<g id="Arrow - Left">
<path id="Arrow - Left_2" fill-rule="evenodd" clip-rule="evenodd" d="M12.8538 6.58101C13.1357 6.5422 13.3529 6.29697 13.3529 6.00025C13.3529 5.67655 13.0944 5.41414 12.7754 5.41414L2.62357 5.41414L6.2908 1.70746L6.34685 1.64184C6.51508 1.41274 6.49711 1.08709 6.29249 0.878581C6.06742 0.649218 5.70174 0.64845 5.47573 0.876864L0.825121 5.57696C0.797426 5.60389 0.772368 5.63359 0.750381 5.66562C0.592965 5.8945 0.615154 6.21199 0.816941 6.41589L5.47576 11.1235L5.54066 11.1801C5.76712 11.3499 6.08793 11.3303 6.29253 11.1217C6.51758 10.8923 6.5168 10.5212 6.29077 10.2928L2.62266 6.58636L12.7754 6.58636L12.8538 6.58101Z" fill="#F05924"/>
</g>
</svg>
