<svg width="41" height="25" viewBox="0 0 41 25" fill="none" xmlns="http://www.w3.org/2000/svg">
<path d="M37.7696 0.535796C37.5354 0.0834428 36.9566 -0.122172 36.4558 0.0893175L36.2541 0.177438C35.7793 0.383053 35.5842 0.882404 35.7728 1.32301C36.6769 3.42616 37.1322 5.71142 37.1582 8.12593C37.1647 8.57241 36.7484 8.93664 36.2476 8.93077H35.8704C35.4086 8.92489 35.0313 8.59591 34.9923 8.1788C34.7842 6.16377 34.2834 4.21337 33.4964 2.35108C33.2947 1.88111 32.6834 1.66962 32.176 1.88111H32.1695C31.7012 2.08085 31.4931 2.57432 31.6752 3.01493C32.3581 4.63635 32.8134 6.33414 33.0151 8.08481C33.0736 8.54891 32.6573 8.95426 32.137 8.96601H32.124C31.6817 8.96601 31.3045 8.6664 31.2394 8.26692C30.9728 6.78062 30.55 5.32956 29.9711 3.91963C29.776 3.44966 29.1906 3.16767 28.6768 3.34978C28.2865 3.49078 28.0524 3.81976 28.0524 4.17225C28.0524 4.28386 28.0784 4.39548 28.1239 4.5071C28.6052 5.65855 28.9695 6.85112 29.2166 8.06718C29.3142 8.56653 28.9044 9.03063 28.3451 9.03063H28.2996C27.8638 9.03063 27.48 8.7604 27.402 8.37267C27.363 8.1788 27.3239 7.98494 27.2784 7.79107C27.2394 7.58546 27.1873 7.37984 27.1353 7.18597C27.1158 7.11548 27.1028 7.04498 27.0833 6.98036C27.0247 6.76887 26.9597 6.5515 26.8947 6.34001C26.8751 6.26364 26.8556 6.1814 26.8296 6.1109C26.7646 5.91116 26.6995 5.7173 26.6345 5.51756C26.5955 5.41769 26.5629 5.31781 26.5239 5.22382C26.1532 4.87134 25.7239 4.5776 25.2361 4.79496L25.1125 4.84784C24.7093 5.02408 24.5271 5.44118 24.6702 5.82304C24.9499 6.58675 25.1841 7.35634 25.3532 8.1318C25.4637 8.60178 25.5548 9.07763 25.6264 9.55348C25.6524 9.71798 25.6719 9.87659 25.6914 10.0411C25.7239 10.3583 25.7629 10.6756 25.7824 10.9987C25.7824 11.0163 25.7759 11.0339 25.7824 11.0574C25.8085 11.3864 25.815 11.7154 25.815 12.0444C25.8215 12.2911 25.8215 12.532 25.815 12.7728C25.815 12.8668 25.815 12.9608 25.8085 13.0489C25.802 13.2252 25.789 13.4014 25.7824 13.5777C25.7629 13.7363 25.7499 13.8949 25.7369 14.0476C25.7304 14.0711 25.7304 14.0888 25.7304 14.1064C25.6979 14.4178 25.6589 14.7291 25.6068 15.0463C25.5678 15.3048 25.5223 15.5751 25.4702 15.8277V15.8453C25.4377 16.0215 25.4052 16.1919 25.3597 16.3623C25.3532 16.3682 25.3532 16.374 25.3532 16.3799C25.1906 17.1201 24.1954 17.4197 23.558 16.9321L22.5044 16.1332L20.9889 14.9876L20.7092 14.7761C20.5076 14.6234 20.2604 14.5646 20.0133 14.5764C19.7661 14.5587 19.519 14.6234 19.3173 14.7761L19.0376 14.9876L17.5222 16.1332L16.4685 16.9321C15.8311 17.4197 14.836 17.1201 14.6734 16.3799C14.6734 16.374 14.6734 16.3682 14.6669 16.3623C14.6213 16.1919 14.5888 16.0215 14.5563 15.8453V15.8277C14.5043 15.5751 14.4587 15.3048 14.4197 15.0463C14.3677 14.7291 14.3286 14.4178 14.2961 14.1064C14.2961 14.0888 14.2961 14.0711 14.2961 14.0476C14.2831 13.8949 14.2701 13.7363 14.2506 13.5777C14.2506 13.4014 14.2311 13.2252 14.2246 13.0489C14.2246 12.9608 14.2116 12.8668 14.2246 12.7728C14.2116 12.532 14.2116 12.2911 14.2181 12.0444C14.2181 11.7154 14.2246 11.3864 14.2506 11.0574C14.2506 11.0339 14.2506 11.0163 14.2506 10.9987C14.2701 10.6756 14.3091 10.3583 14.3416 10.0411C14.3612 9.87659 14.3807 9.71798 14.4067 9.55348C14.4782 9.07763 14.5693 8.60178 14.6799 8.1318C14.8555 7.35047 15.0896 6.58088 15.3693 5.81717C15.5059 5.43531 15.3238 5.0182 14.9205 4.84784L14.7969 4.79496C14.3091 4.58348 13.8864 4.87134 13.5091 5.22382C13.4701 5.31781 13.4376 5.41769 13.3985 5.51756C13.3335 5.7173 13.2685 5.91116 13.2034 6.1109C13.1774 6.1814 13.1579 6.26364 13.1384 6.34001C13.0733 6.5515 13.0083 6.76887 12.9498 6.98036C12.9302 7.04498 12.9172 7.11548 12.8977 7.18597C12.8457 7.37984 12.7937 7.58546 12.7546 7.79107C12.7091 7.98494 12.6701 8.1788 12.6311 8.37267C12.553 8.7604 12.1693 9.03651 11.7335 9.03063H11.688C11.1286 9.03063 10.7188 8.56653 10.8164 8.06718C11.0636 6.85112 11.4278 5.65855 11.9091 4.5071C11.9546 4.39548 11.9806 4.28386 11.9806 4.17225C11.9806 3.81976 11.753 3.49665 11.3562 3.34978C10.8424 3.16179 10.257 3.44966 10.0619 3.91963C9.47655 5.32956 9.05378 6.78649 8.79361 8.26692C8.72857 8.6664 8.35133 8.96601 7.90905 8.96601H7.89604C7.37571 8.95426 6.95944 8.54891 7.01798 8.08481C7.21961 6.33414 7.6749 4.63635 8.35783 3.01493C8.53995 2.57432 8.33181 2.08085 7.86352 1.88111H7.85701C7.34969 1.66962 6.7383 1.88111 6.53667 2.35108C5.74967 4.21337 5.24885 6.16377 5.04072 8.1788C5.00169 8.59591 4.62445 8.92489 4.16266 8.92489H3.78541C3.2911 8.93664 2.86833 8.57828 2.87483 8.12593C2.90085 5.70555 3.35614 3.42616 4.26672 1.31713C4.45534 0.876529 4.26022 0.383053 3.79192 0.177438L3.58379 0.0834428C3.08297 -0.128047 2.5041 0.0775681 2.26995 0.529921C0.793506 3.38503 0.0195124 6.50451 0 9.7356V9.83547C0 15.0522 2.04881 20.1162 5.76918 24.1228C6.7383 25.1626 8.4619 25.2977 9.61313 24.4224L19.0311 17.2787C19.597 16.8499 20.4165 16.8499 20.9824 17.2787L30.4004 24.4224C31.5516 25.2977 33.2752 25.1626 34.2443 24.1228C37.9647 20.1162 40.0135 15.0522 40.0135 9.83547V9.7356C39.994 6.50451 39.22 3.38503 37.7696 0.535796Z" fill="#F05924"/>
</svg>
