<svg width="24" height="25" viewBox="0 0 24 25" fill="none" xmlns="http://www.w3.org/2000/svg">
<g id="vuesax/bold/search-normal">
<g id="search-normal">
<path id="Vector" d="M11.5 21.5C16.7467 21.5 21 17.2467 21 12C21 6.75329 16.7467 2.5 11.5 2.5C6.25329 2.5 2 6.75329 2 12C2 17.2467 6.25329 21.5 11.5 21.5Z" fill="#F05924"/>
<path id="Vector_2" d="M21.3 22.4996C21.12 22.4996 20.94 22.4296 20.81 22.2996L18.95 20.4396C18.68 20.1696 18.68 19.7296 18.95 19.4496C19.22 19.1796 19.66 19.1796 19.94 19.4496L21.8 21.3096C22.07 21.5796 22.07 22.0196 21.8 22.2996C21.66 22.4296 21.48 22.4996 21.3 22.4996Z" fill="#F05924"/>
</g>
</g>
</svg>
